<?xml version="1.0" encoding="UTF-8" standalone="no"?>
<!-- Generator: Adobe Illustrator 15.1.0, SVG Export Plug-In . SVG Version: 6.00 Build 0)  -->

<svg
   xmlns:dc="http://purl.org/dc/elements/1.1/"
   xmlns:cc="http://creativecommons.org/ns#"
   xmlns:rdf="http://www.w3.org/1999/02/22-rdf-syntax-ns#"
   xmlns:svg="http://www.w3.org/2000/svg"
   xmlns="http://www.w3.org/2000/svg"
   xmlns:sodipodi="http://sodipodi.sourceforge.net/DTD/sodipodi-0.dtd"
   xmlns:inkscape="http://www.inkscape.org/namespaces/inkscape"
   version="1.1"
   id="Layer_1"
   x="0px"
   y="0px"
   width="200px"
   height="100px"
   viewBox="0 0 200 100"
   enable-background="new 0 0 200 100"
   xml:space="preserve"
   inkscape:version="0.48.2 r9819"
   sodipodi:docname="moveNotThere.png"><metadata
   id="metadata58"><rdf:RDF><cc:Work
       rdf:about=""><dc:format>image/svg+xml</dc:format><dc:type
         rdf:resource="http://purl.org/dc/dcmitype/StillImage" /><dc:title></dc:title></cc:Work></rdf:RDF></metadata><defs
   id="defs56" /><sodipodi:namedview
   pagecolor="#ffffff"
   bordercolor="#666666"
   borderopacity="1"
   objecttolerance="10"
   gridtolerance="10"
   guidetolerance="10"
   inkscape:pageopacity="0"
   inkscape:pageshadow="2"
   inkscape:window-width="1920"
   inkscape:window-height="1060"
   id="namedview54"
   showgrid="false"
   inkscape:zoom="1.635"
   inkscape:cx="-46.309175"
   inkscape:cy="58.806155"
   inkscape:window-x="1918"
   inkscape:window-y="-3"
   inkscape:window-maximized="1"
   inkscape:current-layer="Layer_1" />
<g
   id="g3">
	<radialGradient
   id="SVGID_1_"
   cx="49.192345"
   cy="56.408966"
   r="20.4688"
   gradientUnits="userSpaceOnUse"
   fx="49.192345"
   fy="56.408966"
   gradientTransform="matrix(1.3574221,0.01423597,-0.01473412,1.4049208,-16.751296,-23.541464)">
		<stop
   offset="0.0242"
   style="stop-color:#f5b9ee;stop-opacity:1;"
   id="stop6" />
		<stop
   offset="0.1242"
   style="stop-color:#f6c0f1;stop-opacity:1;"
   id="stop8" />
		<stop
   offset="0.2911"
   style="stop-color:#f3a5eb;stop-opacity:1;"
   id="stop10" />
		<stop
   offset="0.45429999"
   style="stop-color:#ed79e1;stop-opacity:1;"
   id="stop12" />
		<stop
   offset="0.61019999"
   style="stop-color:#e856d9;stop-opacity:1;"
   id="stop14" />
		<stop
   offset="0.75690001"
   style="stop-color:#e53dd3;stop-opacity:1;"
   id="stop16" />
		<stop
   offset="0.8908"
   style="stop-color:#e32ed0;stop-opacity:1;"
   id="stop18" />
		<stop
   offset="1"
   style="stop-color:#e229ce;stop-opacity:1;"
   id="stop20" />
	</radialGradient>
	<circle
   cx="62.495998"
   cy="42.647999"
   r="20.466"
   id="circle22"
   sodipodi:cx="62.495998"
   sodipodi:cy="42.647999"
   sodipodi:rx="20.466"
   sodipodi:ry="20.466"
   style="fill:url(#SVGID_1_)" />
	<path
   d="m 73.588,25.449 c 4.538,2.867 7.841,7.605 8.974,12.868 1.179,5.252 0.172,10.956 -2.764,15.492 -2.884,4.562 -7.653,7.888 -12.946,9.026 -5.284,1.186 -11.021,0.173 -15.588,-2.782 -4.566,-2.933 -7.861,-7.748 -8.958,-13.049 -1.146,-5.293 -0.085,-11.007 2.886,-15.52 2.918,-4.541 7.702,-7.814 12.973,-8.904 5.261,-1.138 10.94,-0.082 15.423,2.869 z m 0,0 c -4.507,-2.916 -10.177,-3.918 -15.397,-2.746 -5.231,1.126 -9.939,4.408 -12.79,8.92 -2.897,4.477 -3.894,10.114 -2.728,15.301 1.12,5.2 4.38,9.874 8.866,12.714 4.424,2.912 10.036,3.957 15.233,2.831 5.208,-1.078 9.93,-4.308 12.817,-8.798 2.932,-4.454 3.982,-10.099 2.85,-15.328 -1.084,-5.239 -4.335,-9.991 -8.851,-12.894 z"
   id="path24"
   inkscape:connector-curvature="0" />
</g>
<path
   d="M55.134,74.447c-5.739,5.739-15.881,4.906-22.651-1.862c-6.771-6.773-7.604-16.914-1.864-22.654  c5.742-5.739,10.733-0.76,17.501,6.009C54.891,62.713,60.875,68.705,55.134,74.447z"
   id="path26" />
<path
   fill="#FFFFFF"
   d="M64.036,24.806c0,0-5.585-1.394-9.895,1.582c-4.311,2.973-2.109,1.599,0.909,0.328  C58.068,25.447,64.036,24.806,64.036,24.806z"
   id="path28" />
<path
   fill="#FFFFFF"
   d="M59.938,23.842c0,0-2.2-0.529-3.901,0.605c-1.701,1.135-0.833,0.609,0.358,0.126  C57.585,24.087,59.938,23.842,59.938,23.842z"
   id="path30" />
<line
   x1="56.241"
   y1="75.185"
   x2="46.027"
   y2="76.761"
   id="line32" />
<path
   d="M45.528,70.54c1.079,1.171,5.208,6.103,4.036,7.18c0,0-14.969,7.765-19.058,10.714  c-4.088,2.952-13.304,12.089-13.304,12.089c-1.172,1.083-2.999,1.005-4.078-0.167L1.555,87.786c-1.079-1.177-1.003-3,0.17-4.082  c0,0,6.737-4.332,13.868-12.113c7.132-7.782,11.684-15.768,11.684-15.768c1.174-1.083,5.604,0.97,6.684,2.146L45.528,70.54z"
   id="path34" />
<g
   id="g36">
	<path
   fill="#F45151"
   d="M58.224,97.15c-12.375,0-24.141-4.705-33.125-13.241c-9.318-8.858-14.63-20.812-14.957-33.664   c-0.328-12.851,4.368-25.06,13.225-34.379c8.855-9.319,20.81-14.632,33.661-14.959c0.421-0.01,0.837-0.015,1.258-0.015   c12.373,0,24.136,4.702,33.122,13.24c9.318,8.857,14.631,20.811,14.957,33.663c0.328,12.855-4.369,25.058-13.225,34.376   c-8.855,9.322-20.812,14.635-33.661,14.965C59.059,97.143,58.641,97.15,58.224,97.15z M58.26,4.543   c-12.314,0-23.768,4.915-32.248,13.838c-8.183,8.611-12.525,19.895-12.222,31.773c0.302,11.873,5.211,22.922,13.824,31.106   c8.303,7.893,19.181,12.235,30.631,12.235c12.316,0,23.768-4.911,32.25-13.834c8.182-8.611,12.524-19.896,12.221-31.773   c-0.302-11.877-5.213-22.925-13.825-31.107C80.587,8.889,69.711,4.543,58.26,4.543z"
   id="path38" />
	<path
   fill="#F45151"
   d="M57.046,1.63C44.389,1.952,32.612,7.185,23.89,16.363c-8.723,9.179-13.35,21.205-13.026,33.864   c0.321,12.659,5.554,24.432,14.732,33.158c9.18,8.725,21.207,13.348,33.866,13.026c12.657-0.322,24.434-5.556,33.155-14.732   c8.723-9.185,13.35-21.206,13.028-33.865c-0.321-12.66-5.553-24.435-14.736-33.159C81.731,5.934,69.704,1.307,57.046,1.63z    M91.015,80.155c-17.192,18.096-45.802,18.823-63.898,1.63C9.022,64.586,8.292,35.979,25.489,17.884   C42.685-0.209,71.294-0.939,89.391,16.257C107.483,33.453,108.214,62.062,91.015,80.155z"
   id="path40" />
	
		<rect
   x="56.02"
   y="2.062"
   transform="matrix(-0.6887 0.725 -0.725 -0.6887 133.5527 40.5437)"
   fill="#F45151"
   width="4.106"
   height="93.757"
   id="rect42" />
	
		<rect
   x="56.742"
   y="2.784"
   transform="matrix(0.6892 -0.7246 0.7246 0.6892 -17.4112 57.2901)"
   fill="#F45151"
   width="2.663"
   height="92.313"
   id="rect44" />
</g>
<text
   transform="matrix(1 0 0 1 109.292 26.3223)"
   id="text46"><tspan
     x="0"
     y="0"
     font-family="'MyriadPro-Bold'"
     font-size="25.9841"
     id="tspan48">Sphere </tspan><tspan
     x="19.826"
     y="31.181"
     font-family="'MyriadPro-Bold'"
     font-size="25.9841"
     id="tspan50">Not </tspan><tspan
     x="4.457"
     y="62.361"
     font-family="'MyriadPro-Bold'"
     font-size="25.9841"
     id="tspan52">Visible</tspan></text>

</svg>